<svg xmlns="http://www.w3.org/2000/svg"  viewBox="0 0 100 100" width="100px" height="100px"><polygon fill="#787ab5" points="18,26 18,76 34,76 34,90 48,76 60,76 84,52 84,12 32,12"/><polygon fill="#fff" points="35.5,18.5 35.5,58.5 47.5,58.5 47.5,68.5 57.5,58.5 67.5,58.5 78.5,47.5 78.5,18.5"/><rect width="5" height="15" x="50.5" y="28.5" fill="#787ab5"/><rect width="5" height="15" x="65.5" y="28.5" fill="#787ab5"/><path fill="#1f212b" d="M34,91c-0.129,0-0.259-0.025-0.383-0.076C33.243,90.769,33,90.404,33,90V77H18c-0.553,0-1-0.448-1-1 V26c0-0.265,0.105-0.52,0.293-0.707l14-14C31.48,11.105,31.734,11,32,11h52c0.553,0,1,0.448,1,1v40c0,0.265-0.105,0.52-0.293,0.707 l-24,24C60.52,76.895,60.266,77,60,77H48.414L34.707,90.707C34.516,90.898,34.26,91,34,91z M19,75h15c0.553,0,1,0.448,1,1v11.586 l12.293-12.293C47.48,75.105,47.734,75,48,75h11.586L83,51.586V13H32.414L19,26.414V75z"/><path fill="#1f212b" d="M78.5,35c-0.276,0-0.5-0.224-0.5-0.5V19H36v6.5c0,0.276-0.224,0.5-0.5,0.5S35,25.776,35,25.5v-7 c0-0.276,0.224-0.5,0.5-0.5h43c0.276,0,0.5,0.224,0.5,0.5v16C79,34.776,78.776,35,78.5,35z"/><path fill="#1f212b" d="M78.5,41c-0.276,0-0.5-0.224-0.5-0.5v-3c0-0.276,0.224-0.5,0.5-0.5s0.5,0.224,0.5,0.5v3 C79,40.776,78.776,41,78.5,41z"/><path fill="#1f212b" d="M47.5,69c-0.064,0-0.13-0.012-0.191-0.038C47.122,68.885,47,68.702,47,68.5V59H35.5 c-0.276,0-0.5-0.224-0.5-0.5v-30c0-0.276,0.224-0.5,0.5-0.5s0.5,0.224,0.5,0.5V58h11.5c0.276,0,0.5,0.224,0.5,0.5v8.793 l9.146-9.146C57.24,58.053,57.367,58,57.5,58h9.793L78,47.293V43.5c0-0.276,0.224-0.5,0.5-0.5s0.5,0.224,0.5,0.5v4 c0,0.133-0.053,0.26-0.146,0.354l-11,11C67.76,58.947,67.633,59,67.5,59h-9.793l-9.854,9.854C47.758,68.949,47.63,69,47.5,69z"/><path fill="#1f212b" d="M55.5,44h-5c-0.276,0-0.5-0.224-0.5-0.5v-3c0-0.276,0.224-0.5,0.5-0.5s0.5,0.224,0.5,0.5V43h4V29h-4 v4.5c0,0.276-0.224,0.5-0.5,0.5S50,33.776,50,33.5v-5c0-0.276,0.224-0.5,0.5-0.5h5c0.276,0,0.5,0.224,0.5,0.5v15 C56,43.776,55.776,44,55.5,44z"/><path fill="#1f212b" d="M50.5,38c-0.276,0-0.5-0.224-0.5-0.5V36c0-0.276,0.224-0.5,0.5-0.5S51,35.724,51,36v1.5 C51,37.776,50.776,38,50.5,38z"/><path fill="#1f212b" d="M70.5,44h-5c-0.276,0-0.5-0.224-0.5-0.5v-15c0-0.276,0.224-0.5,0.5-0.5h5c0.276,0,0.5,0.224,0.5,0.5 v4c0,0.276-0.224,0.5-0.5,0.5S70,32.776,70,32.5V29h-4v14h4v-7.5c0-0.276,0.224-0.5,0.5-0.5s0.5,0.224,0.5,0.5v8 C71,43.776,70.776,44,70.5,44z"/></svg>